<?xml version="1.0" encoding="UTF-8" standalone="no"?>
<!DOCTYPE svg PUBLIC "-//W3C//DTD SVG 1.1//EN"
 "http://www.w3.org/Graphics/SVG/1.1/DTD/svg11.dtd">
<!-- Generated by graphviz version 2.40.1 (20161225.0304)
 -->
<!-- Title: dependencies Pages: 1 -->
<svg width="2117pt" height="284pt"
 viewBox="0.00 0.00 2117.00 284.00" xmlns="http://www.w3.org/2000/svg" xmlns:xlink="http://www.w3.org/1999/xlink">
<g id="graph0" class="graph" transform="scale(1 1) rotate(0) translate(4 280)">
<title>dependencies</title>
<polygon fill="#ffffff" stroke="transparent" points="-4,4 -4,-280 2113,-280 2113,4 -4,4"/>
<text text-anchor="start" x="1033.5091" y="-42.4" font-family="sans-serif" font-weight="bold" font-size="14.00" fill="#000000">Legend</text>
<polygon fill="#ffffb3" stroke="transparent" points="820.5,-10 820.5,-30 840.5,-30 840.5,-10 820.5,-10"/>
<text text-anchor="start" x="844.129" y="-15.4" font-family="sans-serif" font-size="14.00" fill="#000000"> &#160;Declarations</text>
<polygon fill="#8dd3c7" stroke="transparent" points="933.5,-10 933.5,-30 953.5,-30 953.5,-10 933.5,-10"/>
<text text-anchor="start" x="957.2251" y="-15.4" font-family="sans-serif" font-size="14.00" fill="#000000"> &#160;Module</text>
<polygon fill="#80b1d3" stroke="transparent" points="1019.5,-10 1019.5,-30 1039.5,-30 1039.5,-10 1019.5,-10"/>
<text text-anchor="start" x="1043.2812" y="-15.4" font-family="sans-serif" font-size="14.00" fill="#000000"> &#160;Bootstrap</text>
<polygon fill="#fdb462" stroke="transparent" points="1116.5,-10 1116.5,-30 1136.5,-30 1136.5,-10 1116.5,-10"/>
<text text-anchor="start" x="1140.1732" y="-15.4" font-family="sans-serif" font-size="14.00" fill="#000000"> &#160;Providers</text>
<polygon fill="#fb8072" stroke="transparent" points="1212.5,-10 1212.5,-30 1232.5,-30 1232.5,-10 1212.5,-10"/>
<text text-anchor="start" x="1236.2258" y="-15.4" font-family="sans-serif" font-size="14.00" fill="#000000"> &#160;Exports</text>
<g id="clust1" class="cluster">
<title>cluster_AppModule</title>
<polygon fill="none" stroke="#000000" stroke-dasharray="1,5" points="8,-70 8,-268 2101,-268 2101,-70 8,-70"/>
</g>
<g id="clust2" class="cluster">
<title>cluster_AppModule_declarations</title>
<polygon fill="none" stroke="#000000" points="308,-78 308,-130 2093,-130 2093,-78 308,-78"/>
</g>
<g id="clust15" class="cluster">
<title>cluster_AppModule_imports</title>
<polygon fill="none" stroke="#000000" points="156,-78 156,-130 300,-130 300,-78 156,-78"/>
</g>
<g id="clust17" class="cluster">
<title>cluster_AppModule_bootstrap</title>
<polygon fill="none" stroke="#000000" points="1032,-208 1032,-260 1156,-260 1156,-208 1032,-208"/>
</g>
<g id="clust18" class="cluster">
<title>cluster_AppModule_providers</title>
<polygon fill="none" stroke="#000000" points="16,-78 16,-130 148,-130 148,-78 16,-78"/>
</g>
<!-- AdmineditComponent -->
<g id="node1" class="node">
<title>AdmineditComponent</title>
<polygon fill="#ffffb3" stroke="#000000" points="2084.7162,-122 1943.2838,-122 1943.2838,-86 2084.7162,-86 2084.7162,-122"/>
<text text-anchor="middle" x="2014" y="-99.8" font-family="Times,serif" font-size="14.00" fill="#000000">AdmineditComponent</text>
</g>
<!-- AppModule -->
<g id="node13" class="node">
<title>AppModule</title>
<polygon fill="#8dd3c7" stroke="#000000" points="1135.6571,-187 1132.6571,-191 1111.6571,-191 1108.6571,-187 1052.3429,-187 1052.3429,-151 1135.6571,-151 1135.6571,-187"/>
<text text-anchor="middle" x="1094" y="-164.8" font-family="Times,serif" font-size="14.00" fill="#000000">AppModule</text>
</g>
<!-- AdmineditComponent&#45;&gt;AppModule -->
<g id="edge1" class="edge">
<title>AdmineditComponent&#45;&gt;AppModule</title>
<path fill="none" stroke="#000000" d="M2014,-122.0908C2014,-145.1328 2014,-182 2014,-182 2014,-182 1145.9211,-182 1145.9211,-182"/>
<polygon fill="#000000" stroke="#000000" points="1145.9212,-178.5001 1135.9211,-182 1145.9211,-185.5001 1145.9212,-178.5001"/>
</g>
<!-- AdminloginComponent -->
<g id="node2" class="node">
<title>AdminloginComponent</title>
<polygon fill="#ffffb3" stroke="#000000" points="1925.5014,-122 1776.4986,-122 1776.4986,-86 1925.5014,-86 1925.5014,-122"/>
<text text-anchor="middle" x="1851" y="-99.8" font-family="Times,serif" font-size="14.00" fill="#000000">AdminloginComponent</text>
</g>
<!-- AdminloginComponent&#45;&gt;AppModule -->
<g id="edge2" class="edge">
<title>AdminloginComponent&#45;&gt;AppModule</title>
<path fill="none" stroke="#000000" d="M1851,-122.0449C1851,-143.6623 1851,-177 1851,-177 1851,-177 1145.7779,-177 1145.7779,-177"/>
<polygon fill="#000000" stroke="#000000" points="1145.7779,-173.5001 1135.7779,-177 1145.7779,-180.5001 1145.7779,-173.5001"/>
</g>
<!-- AppComponent -->
<g id="node3" class="node">
<title>AppComponent</title>
<polygon fill="#ffffb3" stroke="#000000" points="1758.9399,-122 1653.0601,-122 1653.0601,-86 1758.9399,-86 1758.9399,-122"/>
<text text-anchor="middle" x="1706" y="-99.8" font-family="Times,serif" font-size="14.00" fill="#000000">AppComponent</text>
</g>
<!-- AppComponent&#45;&gt;AppModule -->
<g id="edge3" class="edge">
<title>AppComponent&#45;&gt;AppModule</title>
<path fill="none" stroke="#000000" d="M1706,-122.2228C1706,-142.3652 1706,-172 1706,-172 1706,-172 1146.0652,-172 1146.0652,-172"/>
<polygon fill="#000000" stroke="#000000" points="1146.0653,-168.5001 1136.0652,-172 1146.0652,-175.5001 1146.0653,-168.5001"/>
</g>
<!-- EventsComponent -->
<g id="node4" class="node">
<title>EventsComponent</title>
<polygon fill="#ffffb3" stroke="#000000" points="1635.9356,-122 1516.0644,-122 1516.0644,-86 1635.9356,-86 1635.9356,-122"/>
<text text-anchor="middle" x="1576" y="-99.8" font-family="Times,serif" font-size="14.00" fill="#000000">EventsComponent</text>
</g>
<!-- EventsComponent&#45;&gt;AppModule -->
<g id="edge4" class="edge">
<title>EventsComponent&#45;&gt;AppModule</title>
<path fill="none" stroke="#000000" d="M1576,-122.2222C1576,-140.8285 1576,-167 1576,-167 1576,-167 1145.9312,-167 1145.9312,-167"/>
<polygon fill="#000000" stroke="#000000" points="1145.9312,-163.5001 1135.9312,-167 1145.9311,-170.5001 1145.9312,-163.5001"/>
</g>
<!-- FooterComponent -->
<g id="node5" class="node">
<title>FooterComponent</title>
<polygon fill="#ffffb3" stroke="#000000" points="1497.8809,-122 1380.1191,-122 1380.1191,-86 1497.8809,-86 1497.8809,-122"/>
<text text-anchor="middle" x="1439" y="-99.8" font-family="Times,serif" font-size="14.00" fill="#000000">FooterComponent</text>
</g>
<!-- FooterComponent&#45;&gt;AppModule -->
<g id="edge5" class="edge">
<title>FooterComponent&#45;&gt;AppModule</title>
<path fill="none" stroke="#000000" d="M1439,-122.0336C1439,-139.0597 1439,-162 1439,-162 1439,-162 1145.9589,-162 1145.9589,-162"/>
<polygon fill="#000000" stroke="#000000" points="1145.9589,-158.5001 1135.9589,-162 1145.9588,-165.5001 1145.9589,-158.5001"/>
</g>
<!-- LoginComponent -->
<g id="node6" class="node">
<title>LoginComponent</title>
<polygon fill="#ffffb3" stroke="#000000" points="1362.2758,-122 1247.7242,-122 1247.7242,-86 1362.2758,-86 1362.2758,-122"/>
<text text-anchor="middle" x="1305" y="-99.8" font-family="Times,serif" font-size="14.00" fill="#000000">LoginComponent</text>
</g>
<!-- LoginComponent&#45;&gt;AppModule -->
<g id="edge6" class="edge">
<title>LoginComponent&#45;&gt;AppModule</title>
<path fill="none" stroke="#000000" d="M1305,-122.2396C1305,-137.5706 1305,-157 1305,-157 1305,-157 1145.6868,-157 1145.6868,-157"/>
<polygon fill="#000000" stroke="#000000" points="1145.6868,-153.5001 1135.6868,-157 1145.6868,-160.5001 1145.6868,-153.5001"/>
</g>
<!-- NavbarComponent -->
<g id="node7" class="node">
<title>NavbarComponent</title>
<polygon fill="#ffffb3" stroke="#000000" points="1229.0297,-122 1106.9703,-122 1106.9703,-86 1229.0297,-86 1229.0297,-122"/>
<text text-anchor="middle" x="1168" y="-99.8" font-family="Times,serif" font-size="14.00" fill="#000000">NavbarComponent</text>
</g>
<!-- NavbarComponent&#45;&gt;AppModule -->
<g id="edge7" class="edge">
<title>NavbarComponent&#45;&gt;AppModule</title>
<path fill="none" stroke="#000000" d="M1121.2819,-122.1061C1121.2819,-122.1061 1121.2819,-140.991 1121.2819,-140.991"/>
<polygon fill="#000000" stroke="#000000" points="1117.782,-140.9909 1121.2819,-150.991 1124.782,-140.991 1117.782,-140.9909"/>
</g>
<!-- NotfoundComponent -->
<g id="node8" class="node">
<title>NotfoundComponent</title>
<polygon fill="#ffffb3" stroke="#000000" points="1088.4902,-122 953.5098,-122 953.5098,-86 1088.4902,-86 1088.4902,-122"/>
<text text-anchor="middle" x="1021" y="-99.8" font-family="Times,serif" font-size="14.00" fill="#000000">NotfoundComponent</text>
</g>
<!-- NotfoundComponent&#45;&gt;AppModule -->
<g id="edge8" class="edge">
<title>NotfoundComponent&#45;&gt;AppModule</title>
<path fill="none" stroke="#000000" d="M1070.3335,-122.1061C1070.3335,-122.1061 1070.3335,-140.991 1070.3335,-140.991"/>
<polygon fill="#000000" stroke="#000000" points="1066.8335,-140.9909 1070.3335,-150.991 1073.8335,-140.991 1066.8335,-140.9909"/>
</g>
<!-- QuestionsComponent -->
<g id="node9" class="node">
<title>QuestionsComponent</title>
<polygon fill="#ffffb3" stroke="#000000" points="935.8244,-122 798.1756,-122 798.1756,-86 935.8244,-86 935.8244,-122"/>
<text text-anchor="middle" x="867" y="-99.8" font-family="Times,serif" font-size="14.00" fill="#000000">QuestionsComponent</text>
</g>
<!-- QuestionsComponent&#45;&gt;AppModule -->
<g id="edge9" class="edge">
<title>QuestionsComponent&#45;&gt;AppModule</title>
<path fill="none" stroke="#000000" d="M867,-122.2396C867,-137.5706 867,-157 867,-157 867,-157 1042.1002,-157 1042.1002,-157"/>
<polygon fill="#000000" stroke="#000000" points="1042.1002,-160.5001 1052.1002,-157 1042.1001,-153.5001 1042.1002,-160.5001"/>
</g>
<!-- RegisterComponent -->
<g id="node10" class="node">
<title>RegisterComponent</title>
<polygon fill="#ffffb3" stroke="#000000" points="779.9846,-122 652.0154,-122 652.0154,-86 779.9846,-86 779.9846,-122"/>
<text text-anchor="middle" x="716" y="-99.8" font-family="Times,serif" font-size="14.00" fill="#000000">RegisterComponent</text>
</g>
<!-- RegisterComponent&#45;&gt;AppModule -->
<g id="edge10" class="edge">
<title>RegisterComponent&#45;&gt;AppModule</title>
<path fill="none" stroke="#000000" d="M716,-122.0336C716,-139.0597 716,-162 716,-162 716,-162 1042.1031,-162 1042.1031,-162"/>
<polygon fill="#000000" stroke="#000000" points="1042.1032,-165.5001 1052.1031,-162 1042.1031,-158.5001 1042.1032,-165.5001"/>
</g>
<!-- SupportGroupsComponent -->
<g id="node11" class="node">
<title>SupportGroupsComponent</title>
<polygon fill="#ffffb3" stroke="#000000" points="634.378,-122 467.622,-122 467.622,-86 634.378,-86 634.378,-122"/>
<text text-anchor="middle" x="551" y="-99.8" font-family="Times,serif" font-size="14.00" fill="#000000">SupportGroupsComponent</text>
</g>
<!-- SupportGroupsComponent&#45;&gt;AppModule -->
<g id="edge11" class="edge">
<title>SupportGroupsComponent&#45;&gt;AppModule</title>
<path fill="none" stroke="#000000" d="M551,-122.2222C551,-140.8285 551,-167 551,-167 551,-167 1042.2933,-167 1042.2933,-167"/>
<polygon fill="#000000" stroke="#000000" points="1042.2934,-170.5001 1052.2933,-167 1042.2933,-163.5001 1042.2934,-170.5001"/>
</g>
<!-- TipsPageComponent -->
<g id="node12" class="node">
<title>TipsPageComponent</title>
<polygon fill="#ffffb3" stroke="#000000" points="449.9327,-122 316.0673,-122 316.0673,-86 449.9327,-86 449.9327,-122"/>
<text text-anchor="middle" x="383" y="-99.8" font-family="Times,serif" font-size="14.00" fill="#000000">TipsPageComponent</text>
</g>
<!-- TipsPageComponent&#45;&gt;AppModule -->
<g id="edge12" class="edge">
<title>TipsPageComponent&#45;&gt;AppModule</title>
<path fill="none" stroke="#000000" d="M383,-122.2228C383,-142.3652 383,-172 383,-172 383,-172 1042.1781,-172 1042.1781,-172"/>
<polygon fill="#000000" stroke="#000000" points="1042.1782,-175.5001 1052.1781,-172 1042.1781,-168.5001 1042.1782,-175.5001"/>
</g>
<!-- AppComponent  -->
<g id="node15" class="node">
<title>AppComponent </title>
<polygon fill="#80b1d3" stroke="#000000" points="1148.439,-252 1039.561,-252 1039.561,-216 1148.439,-216 1148.439,-252"/>
<text text-anchor="middle" x="1094" y="-229.8" font-family="Times,serif" font-size="14.00" fill="#000000">AppComponent </text>
</g>
<!-- AppModule&#45;&gt;AppComponent  -->
<g id="edge14" class="edge">
<title>AppModule&#45;&gt;AppComponent </title>
<path fill="none" stroke="#000000" stroke-dasharray="1,5" d="M1094,-187.1061C1094,-187.1061 1094,-205.991 1094,-205.991"/>
<polygon fill="#000000" stroke="#000000" points="1090.5001,-205.9909 1094,-215.991 1097.5001,-205.991 1090.5001,-205.9909"/>
</g>
<!-- AppRoutingModule -->
<g id="node14" class="node">
<title>AppRoutingModule</title>
<polygon fill="#8dd3c7" stroke="#000000" points="292.2744,-122 289.2744,-126 268.2744,-126 265.2744,-122 163.7256,-122 163.7256,-86 292.2744,-86 292.2744,-122"/>
<text text-anchor="middle" x="228" y="-99.8" font-family="Times,serif" font-size="14.00" fill="#000000">AppRoutingModule</text>
</g>
<!-- AppRoutingModule&#45;&gt;AppModule -->
<g id="edge13" class="edge">
<title>AppRoutingModule&#45;&gt;AppModule</title>
<path fill="none" stroke="#000000" d="M228,-122.0449C228,-143.6623 228,-177 228,-177 228,-177 1042.231,-177 1042.231,-177"/>
<polygon fill="#000000" stroke="#000000" points="1042.2311,-180.5001 1052.231,-177 1042.231,-173.5001 1042.2311,-180.5001"/>
</g>
<!-- UserService -->
<g id="node16" class="node">
<title>UserService</title>
<ellipse fill="#fdb462" stroke="#000000" cx="82" cy="-104" rx="58.4415" ry="18"/>
<text text-anchor="middle" x="82" y="-99.8" font-family="Times,serif" font-size="14.00" fill="#000000">UserService</text>
</g>
<!-- UserService&#45;&gt;AppModule -->
<g id="edge15" class="edge">
<title>UserService&#45;&gt;AppModule</title>
<path fill="none" stroke="#000000" d="M82,-122.0908C82,-145.1328 82,-182 82,-182 82,-182 1042.1234,-182 1042.1234,-182"/>
<polygon fill="#000000" stroke="#000000" points="1042.1235,-185.5001 1052.1234,-182 1042.1234,-178.5001 1042.1235,-185.5001"/>
</g>
</g>
</svg>
