<?xml version="1.0" encoding="UTF-8" standalone="no"?>
<!DOCTYPE svg PUBLIC "-//W3C//DTD SVG 1.1//EN"
 "http://www.w3.org/Graphics/SVG/1.1/DTD/svg11.dtd">
<!-- Generated by graphviz version 2.40.1 (20161225.0304)
 -->
<!-- Title: dependencies Pages: 1 -->
<svg width="2293pt" height="290pt"
 viewBox="0.00 0.00 2293.00 290.00" xmlns="http://www.w3.org/2000/svg" xmlns:xlink="http://www.w3.org/1999/xlink">
<g id="graph0" class="graph" transform="scale(1 1) rotate(0) translate(4 286)">
<title>dependencies</title>
<polygon fill="#ffffff" stroke="transparent" points="-4,4 -4,-286 2289,-286 2289,4 -4,4"/>
<text text-anchor="start" x="1121.5091" y="-42.4" font-family="sans-serif" font-weight="bold" font-size="14.00" fill="#000000">Legend</text>
<polygon fill="#ffffb3" stroke="transparent" points="908.5,-10 908.5,-30 928.5,-30 928.5,-10 908.5,-10"/>
<text text-anchor="start" x="932.129" y="-15.4" font-family="sans-serif" font-size="14.00" fill="#000000"> &#160;Declarations</text>
<polygon fill="#8dd3c7" stroke="transparent" points="1021.5,-10 1021.5,-30 1041.5,-30 1041.5,-10 1021.5,-10"/>
<text text-anchor="start" x="1045.2251" y="-15.4" font-family="sans-serif" font-size="14.00" fill="#000000"> &#160;Module</text>
<polygon fill="#80b1d3" stroke="transparent" points="1107.5,-10 1107.5,-30 1127.5,-30 1127.5,-10 1107.5,-10"/>
<text text-anchor="start" x="1131.2812" y="-15.4" font-family="sans-serif" font-size="14.00" fill="#000000"> &#160;Bootstrap</text>
<polygon fill="#fdb462" stroke="transparent" points="1204.5,-10 1204.5,-30 1224.5,-30 1224.5,-10 1204.5,-10"/>
<text text-anchor="start" x="1228.1732" y="-15.4" font-family="sans-serif" font-size="14.00" fill="#000000"> &#160;Providers</text>
<polygon fill="#fb8072" stroke="transparent" points="1300.5,-10 1300.5,-30 1320.5,-30 1320.5,-10 1300.5,-10"/>
<text text-anchor="start" x="1324.2258" y="-15.4" font-family="sans-serif" font-size="14.00" fill="#000000"> &#160;Exports</text>
<g id="clust1" class="cluster">
<title>cluster_AppModule</title>
<polygon fill="none" stroke="#000000" stroke-dasharray="1,5" points="8,-70 8,-274 2101,-274 2101,-70 8,-70"/>
</g>
<g id="clust2" class="cluster">
<title>cluster_AppModule_declarations</title>
<polygon fill="none" stroke="#000000" points="156,-78 156,-130 1941,-130 1941,-78 156,-78"/>
</g>
<g id="clust15" class="cluster">
<title>cluster_AppModule_imports</title>
<polygon fill="none" stroke="#000000" points="1949,-78 1949,-130 2093,-130 2093,-78 1949,-78"/>
</g>
<g id="clust17" class="cluster">
<title>cluster_AppModule_bootstrap</title>
<polygon fill="none" stroke="#000000" points="1022,-214 1022,-266 1146,-266 1146,-214 1022,-214"/>
</g>
<g id="clust18" class="cluster">
<title>cluster_AppModule_providers</title>
<polygon fill="none" stroke="#000000" points="16,-78 16,-130 148,-130 148,-78 16,-78"/>
</g>
<g id="clust19" class="cluster">
<title>cluster_AppRoutingModule</title>
<polygon fill="none" stroke="#000000" stroke-dasharray="1,5" points="2109,-138 2109,-206 2277,-206 2277,-138 2109,-138"/>
</g>
<g id="clust21" class="cluster">
<title>cluster_AppRoutingModule_imports</title>
<polygon fill="none" stroke="#000000" points="2199,-146 2199,-198 2269,-198 2269,-146 2199,-146"/>
</g>
<g id="clust22" class="cluster">
<title>cluster_AppRoutingModule_exports</title>
<polygon fill="none" stroke="#000000" points="2117,-146 2117,-198 2191,-198 2191,-146 2117,-146"/>
</g>
<!-- AdmineditComponent -->
<g id="node1" class="node">
<title>AdmineditComponent</title>
<polygon fill="#ffffb3" stroke="#000000" points="1932.7162,-122 1791.2838,-122 1791.2838,-86 1932.7162,-86 1932.7162,-122"/>
<text text-anchor="middle" x="1862" y="-99.8" font-family="Times,serif" font-size="14.00" fill="#000000">AdmineditComponent</text>
</g>
<!-- AppModule -->
<g id="node13" class="node">
<title>AppModule</title>
<polygon fill="#8dd3c7" stroke="#000000" points="1125.6571,-190 1122.6571,-194 1101.6571,-194 1098.6571,-190 1042.3429,-190 1042.3429,-154 1125.6571,-154 1125.6571,-190"/>
<text text-anchor="middle" x="1084" y="-167.8" font-family="Times,serif" font-size="14.00" fill="#000000">AppModule</text>
</g>
<!-- AdmineditComponent&#45;&gt;AppModule -->
<g id="edge1" class="edge">
<title>AdmineditComponent&#45;&gt;AppModule</title>
<path fill="none" stroke="#000000" d="M1862,-122.0109C1862,-144.4852 1862,-180 1862,-180 1862,-180 1135.8287,-180 1135.8287,-180"/>
<polygon fill="#000000" stroke="#000000" points="1135.8287,-176.5001 1125.8287,-180 1135.8286,-183.5001 1135.8287,-176.5001"/>
</g>
<!-- AdminloginComponent -->
<g id="node2" class="node">
<title>AdminloginComponent</title>
<polygon fill="#ffffb3" stroke="#000000" points="1773.5014,-122 1624.4986,-122 1624.4986,-86 1773.5014,-86 1773.5014,-122"/>
<text text-anchor="middle" x="1699" y="-99.8" font-family="Times,serif" font-size="14.00" fill="#000000">AdminloginComponent</text>
</g>
<!-- AdminloginComponent&#45;&gt;AppModule -->
<g id="edge2" class="edge">
<title>AdminloginComponent&#45;&gt;AppModule</title>
<path fill="none" stroke="#000000" d="M1699,-122.2843C1699,-143.3211 1699,-175 1699,-175 1699,-175 1135.7879,-175 1135.7879,-175"/>
<polygon fill="#000000" stroke="#000000" points="1135.788,-171.5001 1125.7879,-175 1135.7879,-178.5001 1135.788,-171.5001"/>
</g>
<!-- AppComponent -->
<g id="node3" class="node">
<title>AppComponent</title>
<polygon fill="#ffffb3" stroke="#000000" points="1606.9399,-122 1501.0601,-122 1501.0601,-86 1606.9399,-86 1606.9399,-122"/>
<text text-anchor="middle" x="1554" y="-99.8" font-family="Times,serif" font-size="14.00" fill="#000000">AppComponent</text>
</g>
<!-- AppComponent&#45;&gt;AppModule -->
<g id="edge3" class="edge">
<title>AppComponent&#45;&gt;AppModule</title>
<path fill="none" stroke="#000000" d="M1554,-122.0348C1554,-141.5762 1554,-170 1554,-170 1554,-170 1135.7094,-170 1135.7094,-170"/>
<polygon fill="#000000" stroke="#000000" points="1135.7094,-166.5001 1125.7094,-170 1135.7093,-173.5001 1135.7094,-166.5001"/>
</g>
<!-- EventsComponent -->
<g id="node4" class="node">
<title>EventsComponent</title>
<polygon fill="#ffffb3" stroke="#000000" points="1483.9356,-122 1364.0644,-122 1364.0644,-86 1483.9356,-86 1483.9356,-122"/>
<text text-anchor="middle" x="1424" y="-99.8" font-family="Times,serif" font-size="14.00" fill="#000000">EventsComponent</text>
</g>
<!-- EventsComponent&#45;&gt;AppModule -->
<g id="edge4" class="edge">
<title>EventsComponent&#45;&gt;AppModule</title>
<path fill="none" stroke="#000000" d="M1424,-122.302C1424,-140.2699 1424,-165 1424,-165 1424,-165 1135.6907,-165 1135.6907,-165"/>
<polygon fill="#000000" stroke="#000000" points="1135.6907,-161.5001 1125.6907,-165 1135.6906,-168.5001 1135.6907,-161.5001"/>
</g>
<!-- FooterComponent -->
<g id="node5" class="node">
<title>FooterComponent</title>
<polygon fill="#ffffb3" stroke="#000000" points="1345.8809,-122 1228.1191,-122 1228.1191,-86 1345.8809,-86 1345.8809,-122"/>
<text text-anchor="middle" x="1287" y="-99.8" font-family="Times,serif" font-size="14.00" fill="#000000">FooterComponent</text>
</g>
<!-- FooterComponent&#45;&gt;AppModule -->
<g id="edge5" class="edge">
<title>FooterComponent&#45;&gt;AppModule</title>
<path fill="none" stroke="#000000" d="M1287,-122.027C1287,-138.3976 1287,-160 1287,-160 1287,-160 1136.0617,-160 1136.0617,-160"/>
<polygon fill="#000000" stroke="#000000" points="1136.0618,-156.5001 1126.0617,-160 1136.0617,-163.5001 1136.0618,-156.5001"/>
</g>
<!-- LoginComponent -->
<g id="node6" class="node">
<title>LoginComponent</title>
<polygon fill="#ffffb3" stroke="#000000" points="1210.2758,-122 1095.7242,-122 1095.7242,-86 1210.2758,-86 1210.2758,-122"/>
<text text-anchor="middle" x="1153" y="-99.8" font-family="Times,serif" font-size="14.00" fill="#000000">LoginComponent</text>
</g>
<!-- LoginComponent&#45;&gt;AppModule -->
<g id="edge6" class="edge">
<title>LoginComponent&#45;&gt;AppModule</title>
<path fill="none" stroke="#000000" d="M1110.7202,-122.2228C1110.7202,-122.2228 1110.7202,-143.7269 1110.7202,-143.7269"/>
<polygon fill="#000000" stroke="#000000" points="1107.2203,-143.7269 1110.7202,-153.7269 1114.2203,-143.727 1107.2203,-143.7269"/>
</g>
<!-- NavbarComponent -->
<g id="node7" class="node">
<title>NavbarComponent</title>
<polygon fill="#ffffb3" stroke="#000000" points="1077.0297,-122 954.9703,-122 954.9703,-86 1077.0297,-86 1077.0297,-122"/>
<text text-anchor="middle" x="1016" y="-99.8" font-family="Times,serif" font-size="14.00" fill="#000000">NavbarComponent</text>
</g>
<!-- NavbarComponent&#45;&gt;AppModule -->
<g id="edge7" class="edge">
<title>NavbarComponent&#45;&gt;AppModule</title>
<path fill="none" stroke="#000000" d="M1059.7181,-122.2228C1059.7181,-122.2228 1059.7181,-143.7269 1059.7181,-143.7269"/>
<polygon fill="#000000" stroke="#000000" points="1056.2182,-143.7269 1059.7181,-153.7269 1063.2182,-143.727 1056.2182,-143.7269"/>
</g>
<!-- NotfoundComponent -->
<g id="node8" class="node">
<title>NotfoundComponent</title>
<polygon fill="#ffffb3" stroke="#000000" points="936.4902,-122 801.5098,-122 801.5098,-86 936.4902,-86 936.4902,-122"/>
<text text-anchor="middle" x="869" y="-99.8" font-family="Times,serif" font-size="14.00" fill="#000000">NotfoundComponent</text>
</g>
<!-- NotfoundComponent&#45;&gt;AppModule -->
<g id="edge8" class="edge">
<title>NotfoundComponent&#45;&gt;AppModule</title>
<path fill="none" stroke="#000000" d="M869,-122.027C869,-138.3976 869,-160 869,-160 869,-160 1032.2909,-160 1032.2909,-160"/>
<polygon fill="#000000" stroke="#000000" points="1032.2909,-163.5001 1042.2909,-160 1032.2909,-156.5001 1032.2909,-163.5001"/>
</g>
<!-- QuestionsComponent -->
<g id="node9" class="node">
<title>QuestionsComponent</title>
<polygon fill="#ffffb3" stroke="#000000" points="783.8244,-122 646.1756,-122 646.1756,-86 783.8244,-86 783.8244,-122"/>
<text text-anchor="middle" x="715" y="-99.8" font-family="Times,serif" font-size="14.00" fill="#000000">QuestionsComponent</text>
</g>
<!-- QuestionsComponent&#45;&gt;AppModule -->
<g id="edge9" class="edge">
<title>QuestionsComponent&#45;&gt;AppModule</title>
<path fill="none" stroke="#000000" d="M715,-122.302C715,-140.2699 715,-165 715,-165 715,-165 1032.0303,-165 1032.0303,-165"/>
<polygon fill="#000000" stroke="#000000" points="1032.0303,-168.5001 1042.0303,-165 1032.0302,-161.5001 1032.0303,-168.5001"/>
</g>
<!-- RegisterComponent -->
<g id="node10" class="node">
<title>RegisterComponent</title>
<polygon fill="#ffffb3" stroke="#000000" points="627.9846,-122 500.0154,-122 500.0154,-86 627.9846,-86 627.9846,-122"/>
<text text-anchor="middle" x="564" y="-99.8" font-family="Times,serif" font-size="14.00" fill="#000000">RegisterComponent</text>
</g>
<!-- RegisterComponent&#45;&gt;AppModule -->
<g id="edge10" class="edge">
<title>RegisterComponent&#45;&gt;AppModule</title>
<path fill="none" stroke="#000000" d="M564,-122.0348C564,-141.5762 564,-170 564,-170 564,-170 1032.3252,-170 1032.3252,-170"/>
<polygon fill="#000000" stroke="#000000" points="1032.3253,-173.5001 1042.3252,-170 1032.3252,-166.5001 1032.3253,-173.5001"/>
</g>
<!-- SupportGroupsComponent -->
<g id="node11" class="node">
<title>SupportGroupsComponent</title>
<polygon fill="#ffffb3" stroke="#000000" points="482.378,-122 315.622,-122 315.622,-86 482.378,-86 482.378,-122"/>
<text text-anchor="middle" x="399" y="-99.8" font-family="Times,serif" font-size="14.00" fill="#000000">SupportGroupsComponent</text>
</g>
<!-- SupportGroupsComponent&#45;&gt;AppModule -->
<g id="edge11" class="edge">
<title>SupportGroupsComponent&#45;&gt;AppModule</title>
<path fill="none" stroke="#000000" d="M399,-122.2843C399,-143.3211 399,-175 399,-175 399,-175 1032.1813,-175 1032.1813,-175"/>
<polygon fill="#000000" stroke="#000000" points="1032.1814,-178.5001 1042.1813,-175 1032.1813,-171.5001 1032.1814,-178.5001"/>
</g>
<!-- TipsPageComponent -->
<g id="node12" class="node">
<title>TipsPageComponent</title>
<polygon fill="#ffffb3" stroke="#000000" points="297.9327,-122 164.0673,-122 164.0673,-86 297.9327,-86 297.9327,-122"/>
<text text-anchor="middle" x="231" y="-99.8" font-family="Times,serif" font-size="14.00" fill="#000000">TipsPageComponent</text>
</g>
<!-- TipsPageComponent&#45;&gt;AppModule -->
<g id="edge12" class="edge">
<title>TipsPageComponent&#45;&gt;AppModule</title>
<path fill="none" stroke="#000000" d="M231,-122.0109C231,-144.4852 231,-180 231,-180 231,-180 1032.2806,-180 1032.2806,-180"/>
<polygon fill="#000000" stroke="#000000" points="1032.2806,-183.5001 1042.2806,-180 1032.2806,-176.5001 1032.2806,-183.5001"/>
</g>
<!-- AppComponent  -->
<g id="node15" class="node">
<title>AppComponent </title>
<polygon fill="#80b1d3" stroke="#000000" points="1138.439,-258 1029.561,-258 1029.561,-222 1138.439,-222 1138.439,-258"/>
<text text-anchor="middle" x="1084" y="-235.8" font-family="Times,serif" font-size="14.00" fill="#000000">AppComponent </text>
</g>
<!-- AppModule&#45;&gt;AppComponent  -->
<g id="edge14" class="edge">
<title>AppModule&#45;&gt;AppComponent </title>
<path fill="none" stroke="#000000" stroke-dasharray="1,5" d="M1084,-190.2228C1084,-190.2228 1084,-211.7269 1084,-211.7269"/>
<polygon fill="#000000" stroke="#000000" points="1080.5001,-211.7269 1084,-221.7269 1087.5001,-211.727 1080.5001,-211.7269"/>
</g>
<!-- AppRoutingModule -->
<g id="node14" class="node">
<title>AppRoutingModule</title>
<polygon fill="#8dd3c7" stroke="#000000" points="2085.2744,-122 2082.2744,-126 2061.2744,-126 2058.2744,-122 1956.7256,-122 1956.7256,-86 2085.2744,-86 2085.2744,-122"/>
<text text-anchor="middle" x="2021" y="-99.8" font-family="Times,serif" font-size="14.00" fill="#000000">AppRoutingModule</text>
</g>
<!-- AppRoutingModule&#45;&gt;AppModule -->
<g id="edge13" class="edge">
<title>AppRoutingModule&#45;&gt;AppModule</title>
<path fill="none" stroke="#000000" d="M2021,-122.3802C2021,-146.2785 2021,-185 2021,-185 2021,-185 1135.7755,-185 1135.7755,-185"/>
<polygon fill="#000000" stroke="#000000" points="1135.7755,-181.5001 1125.7755,-185 1135.7755,-188.5001 1135.7755,-181.5001"/>
</g>
<!-- Router  -->
<g id="node18" class="node">
<title>Router </title>
<polygon fill="#fb8072" stroke="#000000" points="2182.6038,-190 2125.3962,-190 2125.3962,-154 2182.6038,-154 2182.6038,-190"/>
<text text-anchor="middle" x="2154" y="-167.8" font-family="Times,serif" font-size="14.00" fill="#000000">Router </text>
</g>
<!-- AppRoutingModule&#45;&gt;Router  -->
<g id="edge17" class="edge">
<title>AppRoutingModule&#45;&gt;Router </title>
<path fill="none" stroke="#000000" stroke-dasharray="5,2" d="M2085.552,-110C2119.4385,-110 2154,-110 2154,-110 2154,-110 2154,-143.7333 2154,-143.7333"/>
<polygon fill="#000000" stroke="#000000" points="2150.5001,-143.7333 2154,-153.7333 2157.5001,-143.7333 2150.5001,-143.7333"/>
</g>
<!-- UserService -->
<g id="node16" class="node">
<title>UserService</title>
<ellipse fill="#fdb462" stroke="#000000" cx="82" cy="-104" rx="58.4415" ry="18"/>
<text text-anchor="middle" x="82" y="-99.8" font-family="Times,serif" font-size="14.00" fill="#000000">UserService</text>
</g>
<!-- UserService&#45;&gt;AppModule -->
<g id="edge15" class="edge">
<title>UserService&#45;&gt;AppModule</title>
<path fill="none" stroke="#000000" d="M82,-122.3802C82,-146.2785 82,-185 82,-185 82,-185 1032.221,-185 1032.221,-185"/>
<polygon fill="#000000" stroke="#000000" points="1032.221,-188.5001 1042.221,-185 1032.221,-181.5001 1032.221,-188.5001"/>
</g>
<!-- Router -->
<g id="node17" class="node">
<title>Router</title>
<polygon fill="#8dd3c7" stroke="#000000" points="2261.1025,-190 2258.1025,-194 2237.1025,-194 2234.1025,-190 2206.8975,-190 2206.8975,-154 2261.1025,-154 2261.1025,-190"/>
<text text-anchor="middle" x="2234" y="-167.8" font-family="Times,serif" font-size="14.00" fill="#000000">Router</text>
</g>
<!-- Router&#45;&gt;AppRoutingModule -->
<g id="edge16" class="edge">
<title>Router&#45;&gt;AppRoutingModule</title>
<path fill="none" stroke="#000000" d="M2234,-153.7079C2234,-131.7943 2234,-98 2234,-98 2234,-98 2095.4851,-98 2095.4851,-98"/>
<polygon fill="#000000" stroke="#000000" points="2095.4851,-94.5001 2085.4851,-98 2095.485,-101.5001 2095.4851,-94.5001"/>
</g>
</g>
</svg>
