<?xml version="1.0" encoding="UTF-8" standalone="no"?>
<!DOCTYPE svg PUBLIC "-//W3C//DTD SVG 1.1//EN"
 "http://www.w3.org/Graphics/SVG/1.1/DTD/svg11.dtd">
<!-- Generated by graphviz version 2.40.1 (20161225.0304)
 -->
<!-- Title: dependencies Pages: 1 -->
<svg width="2750pt" height="284pt"
 viewBox="0.00 0.00 2750.00 284.00" xmlns="http://www.w3.org/2000/svg" xmlns:xlink="http://www.w3.org/1999/xlink">
<g id="graph0" class="graph" transform="scale(1 1) rotate(0) translate(4 280)">
<title>dependencies</title>
<polygon fill="#ffffff" stroke="transparent" points="-4,4 -4,-280 2746,-280 2746,4 -4,4"/>
<text text-anchor="start" x="1350.0091" y="-42.4" font-family="sans-serif" font-weight="bold" font-size="14.00" fill="#000000">Legend</text>
<polygon fill="#ffffb3" stroke="transparent" points="1137,-10 1137,-30 1157,-30 1157,-10 1137,-10"/>
<text text-anchor="start" x="1160.629" y="-15.4" font-family="sans-serif" font-size="14.00" fill="#000000"> &#160;Declarations</text>
<polygon fill="#8dd3c7" stroke="transparent" points="1250,-10 1250,-30 1270,-30 1270,-10 1250,-10"/>
<text text-anchor="start" x="1273.7251" y="-15.4" font-family="sans-serif" font-size="14.00" fill="#000000"> &#160;Module</text>
<polygon fill="#80b1d3" stroke="transparent" points="1336,-10 1336,-30 1356,-30 1356,-10 1336,-10"/>
<text text-anchor="start" x="1359.7812" y="-15.4" font-family="sans-serif" font-size="14.00" fill="#000000"> &#160;Bootstrap</text>
<polygon fill="#fdb462" stroke="transparent" points="1433,-10 1433,-30 1453,-30 1453,-10 1433,-10"/>
<text text-anchor="start" x="1456.6732" y="-15.4" font-family="sans-serif" font-size="14.00" fill="#000000"> &#160;Providers</text>
<polygon fill="#fb8072" stroke="transparent" points="1529,-10 1529,-30 1549,-30 1549,-10 1529,-10"/>
<text text-anchor="start" x="1552.7258" y="-15.4" font-family="sans-serif" font-size="14.00" fill="#000000"> &#160;Exports</text>
<g id="clust1" class="cluster">
<title>cluster_AppModule</title>
<polygon fill="none" stroke="#000000" stroke-dasharray="1,5" points="8,-70 8,-268 2734,-268 2734,-70 8,-70"/>
</g>
<g id="clust2" class="cluster">
<title>cluster_AppModule_declarations</title>
<polygon fill="none" stroke="#000000" points="308,-78 308,-130 2726,-130 2726,-78 308,-78"/>
</g>
<g id="clust19" class="cluster">
<title>cluster_AppModule_imports</title>
<polygon fill="none" stroke="#000000" points="156,-78 156,-130 300,-130 300,-78 156,-78"/>
</g>
<g id="clust21" class="cluster">
<title>cluster_AppModule_bootstrap</title>
<polygon fill="none" stroke="#000000" points="1343,-208 1343,-260 1467,-260 1467,-208 1343,-208"/>
</g>
<g id="clust22" class="cluster">
<title>cluster_AppModule_providers</title>
<polygon fill="none" stroke="#000000" points="16,-78 16,-130 148,-130 148,-78 16,-78"/>
</g>
<!-- AddgatheringComponent -->
<g id="node1" class="node">
<title>AddgatheringComponent</title>
<polygon fill="#ffffb3" stroke="#000000" points="2718.3103,-122 2559.6897,-122 2559.6897,-86 2718.3103,-86 2718.3103,-122"/>
<text text-anchor="middle" x="2639" y="-99.8" font-family="Times,serif" font-size="14.00" fill="#000000">AddgatheringComponent</text>
</g>
<!-- AppModule -->
<g id="node17" class="node">
<title>AppModule</title>
<polygon fill="#8dd3c7" stroke="#000000" points="1446.6571,-187 1443.6571,-191 1422.6571,-191 1419.6571,-187 1363.3429,-187 1363.3429,-151 1446.6571,-151 1446.6571,-187"/>
<text text-anchor="middle" x="1405" y="-164.8" font-family="Times,serif" font-size="14.00" fill="#000000">AppModule</text>
</g>
<!-- AddgatheringComponent&#45;&gt;AppModule -->
<g id="edge1" class="edge">
<title>AddgatheringComponent&#45;&gt;AppModule</title>
<path fill="none" stroke="#000000" d="M2639,-122.3228C2639,-145.6602 2639,-183 2639,-183 2639,-183 1456.7645,-183 1456.7645,-183"/>
<polygon fill="#000000" stroke="#000000" points="1456.7645,-179.5001 1446.7645,-183 1456.7644,-186.5001 1456.7645,-179.5001"/>
</g>
<!-- AdmineditComponent -->
<g id="node2" class="node">
<title>AdmineditComponent</title>
<polygon fill="#ffffb3" stroke="#000000" points="2541.7162,-122 2400.2838,-122 2400.2838,-86 2541.7162,-86 2541.7162,-122"/>
<text text-anchor="middle" x="2471" y="-99.8" font-family="Times,serif" font-size="14.00" fill="#000000">AdmineditComponent</text>
</g>
<!-- AdmineditComponent&#45;&gt;AppModule -->
<g id="edge2" class="edge">
<title>AdmineditComponent&#45;&gt;AppModule</title>
<path fill="none" stroke="#000000" d="M2471,-122.1554C2471,-144.3519 2471,-179 2471,-179 2471,-179 1456.7885,-179 1456.7885,-179"/>
<polygon fill="#000000" stroke="#000000" points="1456.7885,-175.5001 1446.7885,-179 1456.7884,-182.5001 1456.7885,-175.5001"/>
</g>
<!-- AdminloginComponent -->
<g id="node3" class="node">
<title>AdminloginComponent</title>
<polygon fill="#ffffb3" stroke="#000000" points="2382.5014,-122 2233.4986,-122 2233.4986,-86 2382.5014,-86 2382.5014,-122"/>
<text text-anchor="middle" x="2308" y="-99.8" font-family="Times,serif" font-size="14.00" fill="#000000">AdminloginComponent</text>
</g>
<!-- AdminloginComponent&#45;&gt;AppModule -->
<g id="edge3" class="edge">
<title>AdminloginComponent&#45;&gt;AppModule</title>
<path fill="none" stroke="#000000" d="M2308,-122.2843C2308,-143.3211 2308,-175 2308,-175 2308,-175 1456.7425,-175 1456.7425,-175"/>
<polygon fill="#000000" stroke="#000000" points="1456.7426,-171.5001 1446.7425,-175 1456.7425,-178.5001 1456.7426,-171.5001"/>
</g>
<!-- AppComponent -->
<g id="node4" class="node">
<title>AppComponent</title>
<polygon fill="#ffffb3" stroke="#000000" points="2215.9399,-122 2110.0601,-122 2110.0601,-86 2215.9399,-86 2215.9399,-122"/>
<text text-anchor="middle" x="2163" y="-99.8" font-family="Times,serif" font-size="14.00" fill="#000000">AppComponent</text>
</g>
<!-- AppComponent&#45;&gt;AppModule -->
<g id="edge4" class="edge">
<title>AppComponent&#45;&gt;AppModule</title>
<path fill="none" stroke="#000000" d="M2163,-122.308C2163,-142.1455 2163,-171 2163,-171 2163,-171 1456.8331,-171 1456.8331,-171"/>
<polygon fill="#000000" stroke="#000000" points="1456.8331,-167.5001 1446.8331,-171 1456.833,-174.5001 1456.8331,-167.5001"/>
</g>
<!-- EventsComponent -->
<g id="node5" class="node">
<title>EventsComponent</title>
<polygon fill="#ffffb3" stroke="#000000" points="2092.9356,-122 1973.0644,-122 1973.0644,-86 2092.9356,-86 2092.9356,-122"/>
<text text-anchor="middle" x="2033" y="-99.8" font-family="Times,serif" font-size="14.00" fill="#000000">EventsComponent</text>
</g>
<!-- EventsComponent&#45;&gt;AppModule -->
<g id="edge5" class="edge">
<title>EventsComponent&#45;&gt;AppModule</title>
<path fill="none" stroke="#000000" d="M2033,-122.2222C2033,-140.8285 2033,-167 2033,-167 2033,-167 1456.6912,-167 1456.6912,-167"/>
<polygon fill="#000000" stroke="#000000" points="1456.6912,-163.5001 1446.6912,-167 1456.6911,-170.5001 1456.6912,-163.5001"/>
</g>
<!-- FooterComponent -->
<g id="node6" class="node">
<title>FooterComponent</title>
<polygon fill="#ffffb3" stroke="#000000" points="1954.8809,-122 1837.1191,-122 1837.1191,-86 1954.8809,-86 1954.8809,-122"/>
<text text-anchor="middle" x="1896" y="-99.8" font-family="Times,serif" font-size="14.00" fill="#000000">FooterComponent</text>
</g>
<!-- FooterComponent&#45;&gt;AppModule -->
<g id="edge6" class="edge">
<title>FooterComponent&#45;&gt;AppModule</title>
<path fill="none" stroke="#000000" d="M1896,-122.0225C1896,-139.3734 1896,-163 1896,-163 1896,-163 1456.8624,-163 1456.8624,-163"/>
<polygon fill="#000000" stroke="#000000" points="1456.8624,-159.5001 1446.8624,-163 1456.8623,-166.5001 1456.8624,-159.5001"/>
</g>
<!-- LoginComponent -->
<g id="node7" class="node">
<title>LoginComponent</title>
<polygon fill="#ffffb3" stroke="#000000" points="1819.2758,-122 1704.7242,-122 1704.7242,-86 1819.2758,-86 1819.2758,-122"/>
<text text-anchor="middle" x="1762" y="-99.8" font-family="Times,serif" font-size="14.00" fill="#000000">LoginComponent</text>
</g>
<!-- LoginComponent&#45;&gt;AppModule -->
<g id="edge7" class="edge">
<title>LoginComponent&#45;&gt;AppModule</title>
<path fill="none" stroke="#000000" d="M1762,-122.0091C1762,-138.0494 1762,-159 1762,-159 1762,-159 1457.0022,-159 1457.0022,-159"/>
<polygon fill="#000000" stroke="#000000" points="1457.0023,-155.5001 1447.0022,-159 1457.0022,-162.5001 1457.0023,-155.5001"/>
</g>
<!-- NavbarComponent -->
<g id="node8" class="node">
<title>NavbarComponent</title>
<polygon fill="#ffffb3" stroke="#000000" points="1686.0297,-122 1563.9703,-122 1563.9703,-86 1686.0297,-86 1686.0297,-122"/>
<text text-anchor="middle" x="1625" y="-99.8" font-family="Times,serif" font-size="14.00" fill="#000000">NavbarComponent</text>
</g>
<!-- NavbarComponent&#45;&gt;AppModule -->
<g id="edge8" class="edge">
<title>NavbarComponent&#45;&gt;AppModule</title>
<path fill="none" stroke="#000000" d="M1625,-122.1243C1625,-136.7832 1625,-155 1625,-155 1625,-155 1456.8982,-155 1456.8982,-155"/>
<polygon fill="#000000" stroke="#000000" points="1456.8982,-151.5001 1446.8982,-155 1456.8981,-158.5001 1456.8982,-151.5001"/>
</g>
<!-- NotfoundComponent -->
<g id="node9" class="node">
<title>NotfoundComponent</title>
<polygon fill="#ffffb3" stroke="#000000" points="1545.4902,-122 1410.5098,-122 1410.5098,-86 1545.4902,-86 1545.4902,-122"/>
<text text-anchor="middle" x="1478" y="-99.8" font-family="Times,serif" font-size="14.00" fill="#000000">NotfoundComponent</text>
</g>
<!-- NotfoundComponent&#45;&gt;AppModule -->
<g id="edge9" class="edge">
<title>NotfoundComponent&#45;&gt;AppModule</title>
<path fill="none" stroke="#000000" d="M1428.6666,-122.1061C1428.6666,-122.1061 1428.6666,-140.991 1428.6666,-140.991"/>
<polygon fill="#000000" stroke="#000000" points="1425.1666,-140.9909 1428.6666,-150.991 1432.1666,-140.991 1425.1666,-140.9909"/>
</g>
<!-- ProfileComponent -->
<g id="node10" class="node">
<title>ProfileComponent</title>
<polygon fill="#ffffb3" stroke="#000000" points="1392.9328,-122 1273.0672,-122 1273.0672,-86 1392.9328,-86 1392.9328,-122"/>
<text text-anchor="middle" x="1333" y="-99.8" font-family="Times,serif" font-size="14.00" fill="#000000">ProfileComponent</text>
</g>
<!-- ProfileComponent&#45;&gt;AppModule -->
<g id="edge10" class="edge">
<title>ProfileComponent&#45;&gt;AppModule</title>
<path fill="none" stroke="#000000" d="M1377.9439,-122.1061C1377.9439,-122.1061 1377.9439,-140.991 1377.9439,-140.991"/>
<polygon fill="#000000" stroke="#000000" points="1374.444,-140.9909 1377.9439,-150.991 1381.444,-140.991 1374.444,-140.9909"/>
</g>
<!-- QuestionsComponent -->
<g id="node11" class="node">
<title>QuestionsComponent</title>
<polygon fill="#ffffb3" stroke="#000000" points="1255.8244,-122 1118.1756,-122 1118.1756,-86 1255.8244,-86 1255.8244,-122"/>
<text text-anchor="middle" x="1187" y="-99.8" font-family="Times,serif" font-size="14.00" fill="#000000">QuestionsComponent</text>
</g>
<!-- QuestionsComponent&#45;&gt;AppModule -->
<g id="edge11" class="edge">
<title>QuestionsComponent&#45;&gt;AppModule</title>
<path fill="none" stroke="#000000" d="M1187,-122.1243C1187,-136.7832 1187,-155 1187,-155 1187,-155 1353.2253,-155 1353.2253,-155"/>
<polygon fill="#000000" stroke="#000000" points="1353.2254,-158.5001 1363.2253,-155 1353.2253,-151.5001 1353.2254,-158.5001"/>
</g>
<!-- RegisterComponent -->
<g id="node12" class="node">
<title>RegisterComponent</title>
<polygon fill="#ffffb3" stroke="#000000" points="1099.9846,-122 972.0154,-122 972.0154,-86 1099.9846,-86 1099.9846,-122"/>
<text text-anchor="middle" x="1036" y="-99.8" font-family="Times,serif" font-size="14.00" fill="#000000">RegisterComponent</text>
</g>
<!-- RegisterComponent&#45;&gt;AppModule -->
<g id="edge12" class="edge">
<title>RegisterComponent&#45;&gt;AppModule</title>
<path fill="none" stroke="#000000" d="M1036,-122.0091C1036,-138.0494 1036,-159 1036,-159 1036,-159 1353.0303,-159 1353.0303,-159"/>
<polygon fill="#000000" stroke="#000000" points="1353.0303,-162.5001 1363.0303,-159 1353.0302,-155.5001 1353.0303,-162.5001"/>
</g>
<!-- SupportGroupsComponent -->
<g id="node13" class="node">
<title>SupportGroupsComponent</title>
<polygon fill="#ffffb3" stroke="#000000" points="954.378,-122 787.622,-122 787.622,-86 954.378,-86 954.378,-122"/>
<text text-anchor="middle" x="871" y="-99.8" font-family="Times,serif" font-size="14.00" fill="#000000">SupportGroupsComponent</text>
</g>
<!-- SupportGroupsComponent&#45;&gt;AppModule -->
<g id="edge13" class="edge">
<title>SupportGroupsComponent&#45;&gt;AppModule</title>
<path fill="none" stroke="#000000" d="M871,-122.0225C871,-139.3734 871,-163 871,-163 871,-163 1353.0979,-163 1353.0979,-163"/>
<polygon fill="#000000" stroke="#000000" points="1353.098,-166.5001 1363.0979,-163 1353.0979,-159.5001 1353.098,-166.5001"/>
</g>
<!-- TipsPageComponent -->
<g id="node14" class="node">
<title>TipsPageComponent</title>
<polygon fill="#ffffb3" stroke="#000000" points="769.9327,-122 636.0673,-122 636.0673,-86 769.9327,-86 769.9327,-122"/>
<text text-anchor="middle" x="703" y="-99.8" font-family="Times,serif" font-size="14.00" fill="#000000">TipsPageComponent</text>
</g>
<!-- TipsPageComponent&#45;&gt;AppModule -->
<g id="edge14" class="edge">
<title>TipsPageComponent&#45;&gt;AppModule</title>
<path fill="none" stroke="#000000" d="M703,-122.2222C703,-140.8285 703,-167 703,-167 703,-167 1353.189,-167 1353.189,-167"/>
<polygon fill="#000000" stroke="#000000" points="1353.189,-170.5001 1363.189,-167 1353.189,-163.5001 1353.189,-170.5001"/>
</g>
<!-- UserviewComponent -->
<g id="node15" class="node">
<title>UserviewComponent</title>
<polygon fill="#ffffb3" stroke="#000000" points="618.4706,-122 483.5294,-122 483.5294,-86 618.4706,-86 618.4706,-122"/>
<text text-anchor="middle" x="551" y="-99.8" font-family="Times,serif" font-size="14.00" fill="#000000">UserviewComponent</text>
</g>
<!-- UserviewComponent&#45;&gt;AppModule -->
<g id="edge15" class="edge">
<title>UserviewComponent&#45;&gt;AppModule</title>
<path fill="none" stroke="#000000" d="M551,-122.308C551,-142.1455 551,-171 551,-171 551,-171 1353.2317,-171 1353.2317,-171"/>
<polygon fill="#000000" stroke="#000000" points="1353.2317,-174.5001 1363.2317,-171 1353.2317,-167.5001 1353.2317,-174.5001"/>
</g>
<!-- ViewmyselfComponent -->
<g id="node16" class="node">
<title>ViewmyselfComponent</title>
<polygon fill="#ffffb3" stroke="#000000" points="465.752,-122 316.248,-122 316.248,-86 465.752,-86 465.752,-122"/>
<text text-anchor="middle" x="391" y="-99.8" font-family="Times,serif" font-size="14.00" fill="#000000">ViewmyselfComponent</text>
</g>
<!-- ViewmyselfComponent&#45;&gt;AppModule -->
<g id="edge16" class="edge">
<title>ViewmyselfComponent&#45;&gt;AppModule</title>
<path fill="none" stroke="#000000" d="M391,-122.2843C391,-143.3211 391,-175 391,-175 391,-175 1353.0407,-175 1353.0407,-175"/>
<polygon fill="#000000" stroke="#000000" points="1353.0407,-178.5001 1363.0407,-175 1353.0406,-171.5001 1353.0407,-178.5001"/>
</g>
<!-- AppComponent  -->
<g id="node19" class="node">
<title>AppComponent </title>
<polygon fill="#80b1d3" stroke="#000000" points="1459.439,-252 1350.561,-252 1350.561,-216 1459.439,-216 1459.439,-252"/>
<text text-anchor="middle" x="1405" y="-229.8" font-family="Times,serif" font-size="14.00" fill="#000000">AppComponent </text>
</g>
<!-- AppModule&#45;&gt;AppComponent  -->
<g id="edge18" class="edge">
<title>AppModule&#45;&gt;AppComponent </title>
<path fill="none" stroke="#000000" stroke-dasharray="1,5" d="M1405,-187.1061C1405,-187.1061 1405,-205.991 1405,-205.991"/>
<polygon fill="#000000" stroke="#000000" points="1401.5001,-205.9909 1405,-215.991 1408.5001,-205.991 1401.5001,-205.9909"/>
</g>
<!-- AppRoutingModule -->
<g id="node18" class="node">
<title>AppRoutingModule</title>
<polygon fill="#8dd3c7" stroke="#000000" points="292.2744,-122 289.2744,-126 268.2744,-126 265.2744,-122 163.7256,-122 163.7256,-86 292.2744,-86 292.2744,-122"/>
<text text-anchor="middle" x="228" y="-99.8" font-family="Times,serif" font-size="14.00" fill="#000000">AppRoutingModule</text>
</g>
<!-- AppRoutingModule&#45;&gt;AppModule -->
<g id="edge17" class="edge">
<title>AppRoutingModule&#45;&gt;AppModule</title>
<path fill="none" stroke="#000000" d="M228,-122.1554C228,-144.3519 228,-179 228,-179 228,-179 1353.1099,-179 1353.1099,-179"/>
<polygon fill="#000000" stroke="#000000" points="1353.11,-182.5001 1363.1099,-179 1353.1099,-175.5001 1353.11,-182.5001"/>
</g>
<!-- UserService -->
<g id="node20" class="node">
<title>UserService</title>
<ellipse fill="#fdb462" stroke="#000000" cx="82" cy="-104" rx="58.4415" ry="18"/>
<text text-anchor="middle" x="82" y="-99.8" font-family="Times,serif" font-size="14.00" fill="#000000">UserService</text>
</g>
<!-- UserService&#45;&gt;AppModule -->
<g id="edge19" class="edge">
<title>UserService&#45;&gt;AppModule</title>
<path fill="none" stroke="#000000" d="M82,-122.3228C82,-145.6602 82,-183 82,-183 82,-183 1353.2201,-183 1353.2201,-183"/>
<polygon fill="#000000" stroke="#000000" points="1353.2202,-186.5001 1363.2201,-183 1353.2201,-179.5001 1353.2202,-186.5001"/>
</g>
</g>
</svg>
