<?xml version="1.0" encoding="UTF-8" standalone="no"?>
<!DOCTYPE svg PUBLIC "-//W3C//DTD SVG 1.1//EN"
 "http://www.w3.org/Graphics/SVG/1.1/DTD/svg11.dtd">
<!-- Generated by graphviz version 2.40.1 (20161225.0304)
 -->
<!-- Title: dependencies Pages: 1 -->
<svg width="2269pt" height="284pt"
 viewBox="0.00 0.00 2269.00 284.00" xmlns="http://www.w3.org/2000/svg" xmlns:xlink="http://www.w3.org/1999/xlink">
<g id="graph0" class="graph" transform="scale(1 1) rotate(0) translate(4 280)">
<title>dependencies</title>
<polygon fill="#ffffff" stroke="transparent" points="-4,4 -4,-280 2265,-280 2265,4 -4,4"/>
<text text-anchor="start" x="1109.5091" y="-42.4" font-family="sans-serif" font-weight="bold" font-size="14.00" fill="#000000">Legend</text>
<polygon fill="#ffffb3" stroke="transparent" points="896.5,-10 896.5,-30 916.5,-30 916.5,-10 896.5,-10"/>
<text text-anchor="start" x="920.129" y="-15.4" font-family="sans-serif" font-size="14.00" fill="#000000"> &#160;Declarations</text>
<polygon fill="#8dd3c7" stroke="transparent" points="1009.5,-10 1009.5,-30 1029.5,-30 1029.5,-10 1009.5,-10"/>
<text text-anchor="start" x="1033.2251" y="-15.4" font-family="sans-serif" font-size="14.00" fill="#000000"> &#160;Module</text>
<polygon fill="#80b1d3" stroke="transparent" points="1095.5,-10 1095.5,-30 1115.5,-30 1115.5,-10 1095.5,-10"/>
<text text-anchor="start" x="1119.2812" y="-15.4" font-family="sans-serif" font-size="14.00" fill="#000000"> &#160;Bootstrap</text>
<polygon fill="#fdb462" stroke="transparent" points="1192.5,-10 1192.5,-30 1212.5,-30 1212.5,-10 1192.5,-10"/>
<text text-anchor="start" x="1216.1732" y="-15.4" font-family="sans-serif" font-size="14.00" fill="#000000"> &#160;Providers</text>
<polygon fill="#fb8072" stroke="transparent" points="1288.5,-10 1288.5,-30 1308.5,-30 1308.5,-10 1288.5,-10"/>
<text text-anchor="start" x="1312.2258" y="-15.4" font-family="sans-serif" font-size="14.00" fill="#000000"> &#160;Exports</text>
<g id="clust1" class="cluster">
<title>cluster_AppModule</title>
<polygon fill="none" stroke="#000000" stroke-dasharray="1,5" points="8,-70 8,-268 2253,-268 2253,-70 8,-70"/>
</g>
<g id="clust2" class="cluster">
<title>cluster_AppModule_declarations</title>
<polygon fill="none" stroke="#000000" points="308,-78 308,-130 2245,-130 2245,-78 308,-78"/>
</g>
<g id="clust16" class="cluster">
<title>cluster_AppModule_imports</title>
<polygon fill="none" stroke="#000000" points="156,-78 156,-130 300,-130 300,-78 156,-78"/>
</g>
<g id="clust18" class="cluster">
<title>cluster_AppModule_bootstrap</title>
<polygon fill="none" stroke="#000000" points="1111,-208 1111,-260 1235,-260 1235,-208 1111,-208"/>
</g>
<g id="clust19" class="cluster">
<title>cluster_AppModule_providers</title>
<polygon fill="none" stroke="#000000" points="16,-78 16,-130 148,-130 148,-78 16,-78"/>
</g>
<!-- AdmineditComponent -->
<g id="node1" class="node">
<title>AdmineditComponent</title>
<polygon fill="#ffffb3" stroke="#000000" points="2236.7162,-122 2095.2838,-122 2095.2838,-86 2236.7162,-86 2236.7162,-122"/>
<text text-anchor="middle" x="2166" y="-99.8" font-family="Times,serif" font-size="14.00" fill="#000000">AdmineditComponent</text>
</g>
<!-- AppModule -->
<g id="node14" class="node">
<title>AppModule</title>
<polygon fill="#8dd3c7" stroke="#000000" points="1214.6571,-187 1211.6571,-191 1190.6571,-191 1187.6571,-187 1131.3429,-187 1131.3429,-151 1214.6571,-151 1214.6571,-187"/>
<text text-anchor="middle" x="1173" y="-164.8" font-family="Times,serif" font-size="14.00" fill="#000000">AppModule</text>
</g>
<!-- AdmineditComponent&#45;&gt;AppModule -->
<g id="edge1" class="edge">
<title>AdmineditComponent&#45;&gt;AppModule</title>
<path fill="none" stroke="#000000" d="M2166,-122.3228C2166,-145.6602 2166,-183 2166,-183 2166,-183 1224.7182,-183 1224.7182,-183"/>
<polygon fill="#000000" stroke="#000000" points="1224.7182,-179.5001 1214.7182,-183 1224.7182,-186.5001 1224.7182,-179.5001"/>
</g>
<!-- AdminloginComponent -->
<g id="node2" class="node">
<title>AdminloginComponent</title>
<polygon fill="#ffffb3" stroke="#000000" points="2077.5014,-122 1928.4986,-122 1928.4986,-86 2077.5014,-86 2077.5014,-122"/>
<text text-anchor="middle" x="2003" y="-99.8" font-family="Times,serif" font-size="14.00" fill="#000000">AdminloginComponent</text>
</g>
<!-- AdminloginComponent&#45;&gt;AppModule -->
<g id="edge2" class="edge">
<title>AdminloginComponent&#45;&gt;AppModule</title>
<path fill="none" stroke="#000000" d="M2003,-122.2921C2003,-144.2057 2003,-178 2003,-178 2003,-178 1224.7286,-178 1224.7286,-178"/>
<polygon fill="#000000" stroke="#000000" points="1224.7287,-174.5001 1214.7286,-178 1224.7286,-181.5001 1224.7287,-174.5001"/>
</g>
<!-- AppComponent -->
<g id="node3" class="node">
<title>AppComponent</title>
<polygon fill="#ffffb3" stroke="#000000" points="1910.9399,-122 1805.0601,-122 1805.0601,-86 1910.9399,-86 1910.9399,-122"/>
<text text-anchor="middle" x="1858" y="-99.8" font-family="Times,serif" font-size="14.00" fill="#000000">AppComponent</text>
</g>
<!-- AppComponent&#45;&gt;AppModule -->
<g id="edge3" class="edge">
<title>AppComponent&#45;&gt;AppModule</title>
<path fill="none" stroke="#000000" d="M1858,-122.0267C1858,-142.7672 1858,-174 1858,-174 1858,-174 1224.8187,-174 1224.8187,-174"/>
<polygon fill="#000000" stroke="#000000" points="1224.8187,-170.5001 1214.8187,-174 1224.8186,-177.5001 1224.8187,-170.5001"/>
</g>
<!-- EventsComponent -->
<g id="node4" class="node">
<title>EventsComponent</title>
<polygon fill="#ffffb3" stroke="#000000" points="1787.9356,-122 1668.0644,-122 1668.0644,-86 1787.9356,-86 1787.9356,-122"/>
<text text-anchor="middle" x="1728" y="-99.8" font-family="Times,serif" font-size="14.00" fill="#000000">EventsComponent</text>
</g>
<!-- EventsComponent&#45;&gt;AppModule -->
<g id="edge4" class="edge">
<title>EventsComponent&#45;&gt;AppModule</title>
<path fill="none" stroke="#000000" d="M1728,-122.1061C1728,-141.3391 1728,-169 1728,-169 1728,-169 1224.7152,-169 1224.7152,-169"/>
<polygon fill="#000000" stroke="#000000" points="1224.7152,-165.5001 1214.7152,-169 1224.7152,-172.5001 1224.7152,-165.5001"/>
</g>
<!-- FooterComponent -->
<g id="node5" class="node">
<title>FooterComponent</title>
<polygon fill="#ffffb3" stroke="#000000" points="1649.8809,-122 1532.1191,-122 1532.1191,-86 1649.8809,-86 1649.8809,-122"/>
<text text-anchor="middle" x="1591" y="-99.8" font-family="Times,serif" font-size="14.00" fill="#000000">FooterComponent</text>
</g>
<!-- FooterComponent&#45;&gt;AppModule -->
<g id="edge5" class="edge">
<title>FooterComponent&#45;&gt;AppModule</title>
<path fill="none" stroke="#000000" d="M1591,-122.302C1591,-140.2699 1591,-165 1591,-165 1591,-165 1224.9933,-165 1224.9933,-165"/>
<polygon fill="#000000" stroke="#000000" points="1224.9933,-161.5001 1214.9933,-165 1224.9932,-168.5001 1224.9933,-161.5001"/>
</g>
<!-- LoginComponent -->
<g id="node6" class="node">
<title>LoginComponent</title>
<polygon fill="#ffffb3" stroke="#000000" points="1514.2758,-122 1399.7242,-122 1399.7242,-86 1514.2758,-86 1514.2758,-122"/>
<text text-anchor="middle" x="1457" y="-99.8" font-family="Times,serif" font-size="14.00" fill="#000000">LoginComponent</text>
</g>
<!-- LoginComponent&#45;&gt;AppModule -->
<g id="edge6" class="edge">
<title>LoginComponent&#45;&gt;AppModule</title>
<path fill="none" stroke="#000000" d="M1457,-122.027C1457,-138.3976 1457,-160 1457,-160 1457,-160 1224.9052,-160 1224.9052,-160"/>
<polygon fill="#000000" stroke="#000000" points="1224.9052,-156.5001 1214.9052,-160 1224.9051,-163.5001 1224.9052,-156.5001"/>
</g>
<!-- NavbarComponent -->
<g id="node7" class="node">
<title>NavbarComponent</title>
<polygon fill="#ffffb3" stroke="#000000" points="1381.0297,-122 1258.9703,-122 1258.9703,-86 1381.0297,-86 1381.0297,-122"/>
<text text-anchor="middle" x="1320" y="-99.8" font-family="Times,serif" font-size="14.00" fill="#000000">NavbarComponent</text>
</g>
<!-- NavbarComponent&#45;&gt;AppModule -->
<g id="edge7" class="edge">
<title>NavbarComponent&#45;&gt;AppModule</title>
<path fill="none" stroke="#000000" d="M1320,-122.1871C1320,-137.1824 1320,-156 1320,-156 1320,-156 1224.7311,-156 1224.7311,-156"/>
<polygon fill="#000000" stroke="#000000" points="1224.7311,-152.5001 1214.7311,-156 1224.7311,-159.5001 1224.7311,-152.5001"/>
</g>
<!-- NotfoundComponent -->
<g id="node8" class="node">
<title>NotfoundComponent</title>
<polygon fill="#ffffb3" stroke="#000000" points="1240.4902,-122 1105.5098,-122 1105.5098,-86 1240.4902,-86 1240.4902,-122"/>
<text text-anchor="middle" x="1173" y="-99.8" font-family="Times,serif" font-size="14.00" fill="#000000">NotfoundComponent</text>
</g>
<!-- NotfoundComponent&#45;&gt;AppModule -->
<g id="edge8" class="edge">
<title>NotfoundComponent&#45;&gt;AppModule</title>
<path fill="none" stroke="#000000" d="M1173,-122.1061C1173,-122.1061 1173,-140.991 1173,-140.991"/>
<polygon fill="#000000" stroke="#000000" points="1169.5001,-140.9909 1173,-150.991 1176.5001,-140.991 1169.5001,-140.9909"/>
</g>
<!-- QuestionsComponent -->
<g id="node9" class="node">
<title>QuestionsComponent</title>
<polygon fill="#ffffb3" stroke="#000000" points="1087.8244,-122 950.1756,-122 950.1756,-86 1087.8244,-86 1087.8244,-122"/>
<text text-anchor="middle" x="1019" y="-99.8" font-family="Times,serif" font-size="14.00" fill="#000000">QuestionsComponent</text>
</g>
<!-- QuestionsComponent&#45;&gt;AppModule -->
<g id="edge9" class="edge">
<title>QuestionsComponent&#45;&gt;AppModule</title>
<path fill="none" stroke="#000000" d="M1019,-122.1871C1019,-137.1824 1019,-156 1019,-156 1019,-156 1121.3254,-156 1121.3254,-156"/>
<polygon fill="#000000" stroke="#000000" points="1121.3254,-159.5001 1131.3254,-156 1121.3253,-152.5001 1121.3254,-159.5001"/>
</g>
<!-- RegisterComponent -->
<g id="node10" class="node">
<title>RegisterComponent</title>
<polygon fill="#ffffb3" stroke="#000000" points="931.9846,-122 804.0154,-122 804.0154,-86 931.9846,-86 931.9846,-122"/>
<text text-anchor="middle" x="868" y="-99.8" font-family="Times,serif" font-size="14.00" fill="#000000">RegisterComponent</text>
</g>
<!-- RegisterComponent&#45;&gt;AppModule -->
<g id="edge10" class="edge">
<title>RegisterComponent&#45;&gt;AppModule</title>
<path fill="none" stroke="#000000" d="M868,-122.027C868,-138.3976 868,-160 868,-160 868,-160 1121.2306,-160 1121.2306,-160"/>
<polygon fill="#000000" stroke="#000000" points="1121.2306,-163.5001 1131.2306,-160 1121.2305,-156.5001 1121.2306,-163.5001"/>
</g>
<!-- SupportGroupsComponent -->
<g id="node11" class="node">
<title>SupportGroupsComponent</title>
<polygon fill="#ffffb3" stroke="#000000" points="786.378,-122 619.622,-122 619.622,-86 786.378,-86 786.378,-122"/>
<text text-anchor="middle" x="703" y="-99.8" font-family="Times,serif" font-size="14.00" fill="#000000">SupportGroupsComponent</text>
</g>
<!-- SupportGroupsComponent&#45;&gt;AppModule -->
<g id="edge11" class="edge">
<title>SupportGroupsComponent&#45;&gt;AppModule</title>
<path fill="none" stroke="#000000" d="M703,-122.302C703,-140.2699 703,-165 703,-165 703,-165 1121.2906,-165 1121.2906,-165"/>
<polygon fill="#000000" stroke="#000000" points="1121.2907,-168.5001 1131.2906,-165 1121.2906,-161.5001 1121.2907,-168.5001"/>
</g>
<!-- TipsPageComponent -->
<g id="node12" class="node">
<title>TipsPageComponent</title>
<polygon fill="#ffffb3" stroke="#000000" points="601.9327,-122 468.0673,-122 468.0673,-86 601.9327,-86 601.9327,-122"/>
<text text-anchor="middle" x="535" y="-99.8" font-family="Times,serif" font-size="14.00" fill="#000000">TipsPageComponent</text>
</g>
<!-- TipsPageComponent&#45;&gt;AppModule -->
<g id="edge12" class="edge">
<title>TipsPageComponent&#45;&gt;AppModule</title>
<path fill="none" stroke="#000000" d="M535,-122.1061C535,-141.3391 535,-169 535,-169 535,-169 1121.139,-169 1121.139,-169"/>
<polygon fill="#000000" stroke="#000000" points="1121.1391,-172.5001 1131.139,-169 1121.139,-165.5001 1121.1391,-172.5001"/>
</g>
<!-- UserviewComponent -->
<g id="node13" class="node">
<title>UserviewComponent</title>
<polygon fill="#ffffb3" stroke="#000000" points="450.4706,-122 315.5294,-122 315.5294,-86 450.4706,-86 450.4706,-122"/>
<text text-anchor="middle" x="383" y="-99.8" font-family="Times,serif" font-size="14.00" fill="#000000">UserviewComponent</text>
</g>
<!-- UserviewComponent&#45;&gt;AppModule -->
<g id="edge13" class="edge">
<title>UserviewComponent&#45;&gt;AppModule</title>
<path fill="none" stroke="#000000" d="M383,-122.0267C383,-142.7672 383,-174 383,-174 383,-174 1121.0839,-174 1121.0839,-174"/>
<polygon fill="#000000" stroke="#000000" points="1121.084,-177.5001 1131.0839,-174 1121.0839,-170.5001 1121.084,-177.5001"/>
</g>
<!-- AppComponent  -->
<g id="node16" class="node">
<title>AppComponent </title>
<polygon fill="#80b1d3" stroke="#000000" points="1227.439,-252 1118.561,-252 1118.561,-216 1227.439,-216 1227.439,-252"/>
<text text-anchor="middle" x="1173" y="-229.8" font-family="Times,serif" font-size="14.00" fill="#000000">AppComponent </text>
</g>
<!-- AppModule&#45;&gt;AppComponent  -->
<g id="edge15" class="edge">
<title>AppModule&#45;&gt;AppComponent </title>
<path fill="none" stroke="#000000" stroke-dasharray="1,5" d="M1173,-187.1061C1173,-187.1061 1173,-205.991 1173,-205.991"/>
<polygon fill="#000000" stroke="#000000" points="1169.5001,-205.9909 1173,-215.991 1176.5001,-205.991 1169.5001,-205.9909"/>
</g>
<!-- AppRoutingModule -->
<g id="node15" class="node">
<title>AppRoutingModule</title>
<polygon fill="#8dd3c7" stroke="#000000" points="292.2744,-122 289.2744,-126 268.2744,-126 265.2744,-122 163.7256,-122 163.7256,-86 292.2744,-86 292.2744,-122"/>
<text text-anchor="middle" x="228" y="-99.8" font-family="Times,serif" font-size="14.00" fill="#000000">AppRoutingModule</text>
</g>
<!-- AppRoutingModule&#45;&gt;AppModule -->
<g id="edge14" class="edge">
<title>AppRoutingModule&#45;&gt;AppModule</title>
<path fill="none" stroke="#000000" d="M228,-122.2921C228,-144.2057 228,-178 228,-178 228,-178 1121.1752,-178 1121.1752,-178"/>
<polygon fill="#000000" stroke="#000000" points="1121.1752,-181.5001 1131.1752,-178 1121.1752,-174.5001 1121.1752,-181.5001"/>
</g>
<!-- UserService -->
<g id="node17" class="node">
<title>UserService</title>
<ellipse fill="#fdb462" stroke="#000000" cx="82" cy="-104" rx="58.4415" ry="18"/>
<text text-anchor="middle" x="82" y="-99.8" font-family="Times,serif" font-size="14.00" fill="#000000">UserService</text>
</g>
<!-- UserService&#45;&gt;AppModule -->
<g id="edge16" class="edge">
<title>UserService&#45;&gt;AppModule</title>
<path fill="none" stroke="#000000" d="M82,-122.3228C82,-145.6602 82,-183 82,-183 82,-183 1121.2325,-183 1121.2325,-183"/>
<polygon fill="#000000" stroke="#000000" points="1121.2325,-186.5001 1131.2325,-183 1121.2324,-179.5001 1121.2325,-186.5001"/>
</g>
</g>
</svg>
